<svg xmlns="http://www.w3.org/2000/svg" width="7.067" height="7.067" viewBox="0 0 7.067 7.067">
  <g id="グループ_3760" data-name="グループ 3760" transform="translate(-1347.036 -470.935) rotate(-45)">
    <path id="線_115" data-name="線 115" d="M0,8.494a.5.5,0,0,1-.5-.5V0A.5.5,0,0,1,0-.5.5.5,0,0,1,.5,0V7.994A.5.5,0,0,1,0,8.494Z" transform="translate(619.497 1286.5)" fill="#313131"/>
    <path id="線_116" data-name="線 116" d="M0,8.494a.5.5,0,0,1-.5-.5V0A.5.5,0,0,1,0-.5.5.5,0,0,1,.5,0V7.994A.5.5,0,0,1,0,8.494Z" transform="translate(623.494 1290.497) rotate(90)" fill="#313131"/>
  </g>
</svg>
