<svg id="f_logo" xmlns="http://www.w3.org/2000/svg" width="252.159" height="43.813" viewBox="0 0 252.159 43.813">
  <g id="グループ_3634" data-name="グループ 3634">
    <g id="グループ_3633" data-name="グループ 3633" transform="translate(8.377 5.005)">
      <path id="パス_745" data-name="パス 745" d="M32.055,46.375a.706.706,0,0,0,.585-.26.968.968,0,0,0,.26-.585.706.706,0,0,0-.26-.585.968.968,0,0,0-.585-.26h-2.73a.86.86,0,0,0-.845.845.706.706,0,0,0,.26.585.968.968,0,0,0,.585.26h2.73ZM25.1,42.605a1.2,1.2,0,0,1,.325-.78,1.077,1.077,0,0,1,.78-.325h8.971a1.2,1.2,0,0,1,.78.325,1.077,1.077,0,0,1,.325.78v6.24a1.139,1.139,0,0,1-1.105,1.105H26.205a1.2,1.2,0,0,1-.78-.325,1.076,1.076,0,0,1-.325-.78Z" transform="translate(-17.16 -19.528)" fill="#231815"/>
      <path id="パス_746" data-name="パス 746" d="M18.941,37.732h0a3.366,3.366,0,0,1-3.38,0h0a1.12,1.12,0,0,1-.52-.91V27.461a2.223,2.223,0,0,1,1.625-2.145l2.21-.585a1.114,1.114,0,0,0,.845-1.105l-.2-6.305a1.077,1.077,0,0,0-.325-.78,1.2,1.2,0,0,0-.78-.325.939.939,0,0,0-.455.13l-1.95.91a2.18,2.18,0,0,1-2.99-2.73A2,2,0,0,1,14.2,13.29L25.441,7.9a2.294,2.294,0,0,1,.91-.2,2.076,2.076,0,0,1,.91.2L38.572,13.16a2.694,2.694,0,0,1,1.17,1.235,2.18,2.18,0,0,1-2.99,2.73l-1.95-.91a1.205,1.205,0,0,0-.455-.13,1.165,1.165,0,0,0-1.17,1.17l-.2,6.305a1.114,1.114,0,0,0,.845,1.105l2.21.585A2.168,2.168,0,0,1,37.662,27.4v9.361a1.037,1.037,0,0,1-.52.91h0a3.366,3.366,0,0,1-3.38,0h0a1.037,1.037,0,0,1-.52-.91v-6.7a1.568,1.568,0,0,0-.455-1.105,1.522,1.522,0,0,0-1.105-.455h-10.6a1.609,1.609,0,0,0-1.625,1.625v6.76A1.014,1.014,0,0,1,18.941,37.732ZM27.326,12.77a2.076,2.076,0,0,0-.91-.2,2.294,2.294,0,0,0-.91.2l-1.105.52a.9.9,0,0,0-.455.78.706.706,0,0,0,.26.585.968.968,0,0,0,.585.26h3.25a.706.706,0,0,0,.585-.26.968.968,0,0,0,.26-.585.9.9,0,0,0-.455-.78C28.366,13.29,27.326,12.77,27.326,12.77Zm.585,7.085a.706.706,0,0,0,.585-.26.968.968,0,0,0,.26-.585.706.706,0,0,0-.26-.585.968.968,0,0,0-.585-.26h-2.99a.86.86,0,0,0-.845.845.706.706,0,0,0,.26.585.968.968,0,0,0,.585.26Zm-.13,4.68a.706.706,0,0,0,.585-.26.968.968,0,0,0,.26-.585.706.706,0,0,0-.26-.585.968.968,0,0,0-.585-.26h-2.73a.86.86,0,0,0-.845.845.706.706,0,0,0,.26.585.968.968,0,0,0,.585.26Z" transform="translate(-12.886 -7.7)" fill="#231815"/>
    </g>
    <path id="パス_747" data-name="パス 747" d="M21.907,0A21.907,21.907,0,1,0,43.813,21.907,21.916,21.916,0,0,0,21.907,0Zm0,39.393A17.486,17.486,0,1,1,39.393,21.907,17.492,17.492,0,0,1,21.907,39.393Z" fill="#231815"/>
  </g>
  <g id="グループ_3637" data-name="グループ 3637" transform="translate(47.648 10.271)">
    <g id="グループ_3636" data-name="グループ 3636">
      <path id="パス_748" data-name="パス 748" d="M81.1,40.767h7.085a1.69,1.69,0,1,0,0-3.38H86.5V19.38h5.785V21.2a1.8,1.8,0,0,0,1.82,1.755A1.748,1.748,0,0,0,95.857,21.2V17.885A1.886,1.886,0,0,0,93.971,16H75.185A1.886,1.886,0,0,0,73.3,17.885V21.2h0a1.755,1.755,0,0,0,3.51,0V19.38H82.6l-.065,18.071h-1.56a1.721,1.721,0,0,0-1.69,1.69A1.941,1.941,0,0,0,81.1,40.767Z" transform="translate(-73.3 -15.87)" fill="#231815"/>
      <path id="パス_749" data-name="パス 749" d="M143.286,40.7h5.33a1.721,1.721,0,0,0,1.69-1.69,1.79,1.79,0,0,0-1.755-1.755h-.845l-3.9-4.42,2.535-1.82h1.04a1.69,1.69,0,1,0,0-3.38H141.4a1.691,1.691,0,0,0-.065,3.38l-2.145,1.5V17.62a1.817,1.817,0,0,0-1.82-1.82h-3.38a1.69,1.69,0,0,0,0,3.38h1.625V37.186H134.51a1.79,1.79,0,0,0-1.755,1.755,1.678,1.678,0,0,0,1.69,1.69h4.94a1.721,1.721,0,0,0,1.69-1.69,1.624,1.624,0,0,0-1.625-1.69h-.2V36.146l1.95-1.365,2.21,2.535h-.13a1.69,1.69,0,0,0,0,3.38" transform="translate(-93.947 -15.8)" fill="#231815"/>
      <path id="パス_750" data-name="パス 750" d="M286.716,43.584a1.721,1.721,0,0,1,1.69,1.69,1.678,1.678,0,0,1-1.69,1.69h-3.705a1.678,1.678,0,0,1-1.69-1.69,1.779,1.779,0,0,1,1.69-1.755V38.644a1.179,1.179,0,0,0-1.235-1.3,2.294,2.294,0,0,0-.91.2,2.758,2.758,0,0,0-1.82,2.73l.065,3.185a1.735,1.735,0,0,1,1.69,1.755,1.678,1.678,0,0,1-1.69,1.69H275.8a1.721,1.721,0,0,1-1.69-1.69,1.779,1.779,0,0,1,1.69-1.755V38.709a1.261,1.261,0,0,0-1.235-1.365,1.515,1.515,0,0,0-.91.26,2.622,2.622,0,0,0-1.755,2.6l.065,3.315a1.724,1.724,0,0,1,1.625,1.755,1.678,1.678,0,0,1-1.69,1.69H268.19a1.678,1.678,0,0,1-1.69-1.69,1.721,1.721,0,0,1,1.69-1.69h.455V37.409h-.455a1.721,1.721,0,0,1-1.69-1.69,1.678,1.678,0,0,1,1.69-1.69h2.275a1.8,1.8,0,0,1,1.5.845,5.36,5.36,0,0,1,3.445-.975,5.128,5.128,0,0,1,3.185,1.56,6.14,6.14,0,0,1,4.1-1.5c2.21.065,3.575,1.69,3.575,4.1v5.655Z" transform="translate(-140.911 -22.133)" fill="#231815"/>
      <g id="グループ_3635" data-name="グループ 3635" transform="translate(113.498 1.235)">
        <path id="パス_751" data-name="パス 751" d="M253.45,17.7a1.95,1.95,0,1,0,1.95,1.95A2,2,0,0,0,253.45,17.7Z" transform="translate(-249.16 -17.7)" fill="#231815"/>
        <path id="パス_752" data-name="パス 752" d="M255.051,43.586h-.91v-7.8a1.817,1.817,0,0,0-1.82-1.82l-2.73-.065a1.69,1.69,0,1,0,0,3.38h1.17v6.24h-1.17a1.721,1.721,0,0,0-1.69,1.69,1.678,1.678,0,0,0,1.69,1.69h5.33a1.721,1.721,0,0,0,1.69-1.69A1.554,1.554,0,0,0,255.051,43.586Z" transform="translate(-247.9 -23.369)" fill="#231815"/>
      </g>
      <path id="パス_753" data-name="パス 753" d="M205.831,36.77a1.609,1.609,0,0,1-1.625,1.625,1.677,1.677,0,0,1-1.625-1.235,4.5,4.5,0,0,0-3.315-1.5,1.09,1.09,0,0,0-.975.455h0a.886.886,0,0,0-.13.78,1.381,1.381,0,0,0,.52.715,15.526,15.526,0,0,0,2.73,1.04c1.755.585,2.73.975,2.73.975a3.253,3.253,0,0,1,1.885,3.055,4,4,0,0,1-2.405,3.575,4.848,4.848,0,0,1-2.535.39,10.3,10.3,0,0,1-3.835-1.105,1.663,1.663,0,0,1-3.25-.52v-2.86a1.625,1.625,0,0,1,3.25,0v.065a4.442,4.442,0,0,0,3.77,1.56,1.543,1.543,0,0,0,1.235-.65h0a.787.787,0,0,0,.065-.65c-.13-.455-.585-.65-1.625-1.04-.78-.26-2.21-.78-2.47-.845a13.7,13.7,0,0,1-1.82-.78,3.211,3.211,0,0,1-1.885-2.99,3.847,3.847,0,0,1,2.8-3.51,5.666,5.666,0,0,1,1.95-.26,8.956,8.956,0,0,1,3.575.845,1.677,1.677,0,0,1,1.43-.91,1.609,1.609,0,0,1,1.625,1.625l-.065,2.145" transform="translate(-115.54 -21.819)" fill="#231815"/>
      <path id="パス_754" data-name="パス 754" d="M119.716,43.941a2.195,2.195,0,0,1-1.43-2.275V35.49a1.694,1.694,0,0,0-1.755-1.69,1.818,1.818,0,0,0-1.69,1.235A6.539,6.539,0,0,0,111.33,34a6.63,6.63,0,1,0,4.55,11.441,6.886,6.886,0,0,0,2.665,1.755,1.267,1.267,0,0,0,.52.065,1.721,1.721,0,0,0,1.69-1.69A1.6,1.6,0,0,0,119.716,43.941Zm-8.321-.065a3.315,3.315,0,1,1,3.315-3.315A3.329,3.329,0,0,1,111.4,43.876Z" transform="translate(-84.289 -22.099)" fill="#231815"/>
      <path id="パス_755" data-name="パス 755" d="M178.916,43.941a2.195,2.195,0,0,1-1.43-2.275V35.49a1.694,1.694,0,0,0-1.755-1.69,1.818,1.818,0,0,0-1.69,1.235A6.539,6.539,0,0,0,170.53,34a6.63,6.63,0,1,0,4.55,11.441,6.887,6.887,0,0,0,2.665,1.755,1.267,1.267,0,0,0,.52.065,1.721,1.721,0,0,0,1.69-1.69A1.6,1.6,0,0,0,178.916,43.941Zm-8.321-.065a3.315,3.315,0,1,1,3.315-3.315A3.329,3.329,0,0,1,170.6,43.876Z" transform="translate(-105.006 -22.099)" fill="#231815"/>
      <path id="パス_756" data-name="パス 756" d="M319.516,43.941a2.195,2.195,0,0,1-1.43-2.275V35.49a1.694,1.694,0,0,0-1.755-1.69,1.818,1.818,0,0,0-1.69,1.235A6.539,6.539,0,0,0,311.13,34a6.63,6.63,0,1,0,4.55,11.441,6.886,6.886,0,0,0,2.665,1.755,1.267,1.267,0,0,0,.52.065,1.721,1.721,0,0,0,1.69-1.69A1.6,1.6,0,0,0,319.516,43.941Zm-8.32-.065a3.315,3.315,0,1,1,3.315-3.315A3.329,3.329,0,0,1,311.2,43.876Z" transform="translate(-154.21 -22.099)" fill="#231815"/>
      <path id="パス_757" data-name="パス 757" d="M378.216,43.941a2.195,2.195,0,0,1-1.43-2.275V35.49a1.694,1.694,0,0,0-1.755-1.69,1.818,1.818,0,0,0-1.69,1.235A6.538,6.538,0,0,0,369.83,34a6.63,6.63,0,1,0,4.55,11.441,6.887,6.887,0,0,0,2.665,1.755,1.267,1.267,0,0,0,.52.065,1.721,1.721,0,0,0,1.69-1.69A1.523,1.523,0,0,0,378.216,43.941Zm-8.321-.065a3.315,3.315,0,1,1,3.315-3.315A3.329,3.329,0,0,1,369.9,43.876Z" transform="translate(-174.752 -22.099)" fill="#231815"/>
      <path id="パス_758" data-name="パス 758" d="M335,53.081a2.116,2.116,0,0,0-.26.91,1.748,1.748,0,0,0,1.755,1.755h4.29a1.721,1.721,0,0,0,1.69-1.69,1.678,1.678,0,0,0-1.69-1.69h-1.5l7.866-14.886h1.235a1.69,1.69,0,1,0,0-3.38h-5.72a1.678,1.678,0,0,0-1.69,1.69,1.721,1.721,0,0,0,1.69,1.69h.455l-2.275,4.29-2.99-4.29h.52a1.69,1.69,0,1,0,0-3.38H332.59a1.69,1.69,0,0,0,0,3.38h.975l5.4,7.8Z" transform="translate(-163.449 -22.204)" fill="#231815"/>
    </g>
    <path id="パス_759" data-name="パス 759" d="M232.286,40.7h-4.615a1.721,1.721,0,0,1-1.69-1.69,1.678,1.678,0,0,1,1.69-1.69h.78V33.091A1.966,1.966,0,0,0,228,31.6a1.676,1.676,0,0,0-1.3-.455,3.1,3.1,0,0,0-1.17.26,6.771,6.771,0,0,0-1.885,1.235,2.552,2.552,0,0,0-.65,1.3v3.315h.52a1.721,1.721,0,0,1,1.69,1.69,1.678,1.678,0,0,1-1.69,1.69h-4.68a1.691,1.691,0,0,1,.065-3.38h.52V19.18H217.79a1.721,1.721,0,0,1-1.69-1.69,1.678,1.678,0,0,1,1.69-1.69h3.445a1.874,1.874,0,0,1,1.82,1.885V29.126a15.9,15.9,0,0,1,2.015-1.235,6.561,6.561,0,0,1,2.145-.455,4.142,4.142,0,0,1,3.25,1.365,4.444,4.444,0,0,1,1.365,3.12v5.265h.52a1.721,1.721,0,0,1,1.69,1.69,1.849,1.849,0,0,1-1.755,1.82" transform="translate(-123.274 -15.8)" fill="#231815"/>
  </g>
</svg>
