<svg xmlns="http://www.w3.org/2000/svg" width="14.375" height="13.583" viewBox="0 0 14.375 13.583">
  <g id="グループ_16776" data-name="グループ 16776" transform="translate(-152 -718)">
    <path id="多角形_1" data-name="多角形 1" d="M6.819.4a.5.5,0,0,1,.737,0L13.607,7a.5.5,0,0,1-.369.838H1.137A.5.5,0,0,1,.768,7Z" transform="translate(166.375 725.841) rotate(180)" fill="#313131"/>
    <path id="多角形_1_-_アウトライン" data-name="多角形 1 - アウトライン" d="M7.187,1.48,2.273,6.841H12.1L7.187,1.48m0-1.24A.5.5,0,0,1,7.556.4L13.607,7a.5.5,0,0,1-.369.838H1.137A.5.5,0,0,1,.768,7L6.819.4A.5.5,0,0,1,7.187.24Z" transform="translate(166.375 725.841) rotate(180)" fill="#313131"/>
    <path id="パス_21393" data-name="パス 21393" d="M0,0H1.307V5.227L0,6.534Z" transform="translate(158.534 724.244)" fill="#313131"/>
    <path id="パス_21393_-_アウトライン" data-name="パス 21393 - アウトライン" d="M0,0V6.534L1.307,5.227V0H0M-.333-.333H1.64v5.7L-.333,7.339Z" transform="translate(158.534 724.244)" fill="#313131"/>
  </g>
</svg>
