<svg xmlns="http://www.w3.org/2000/svg" width="15" height="14.368" viewBox="0 0 15 14.368">
  <g transform="translate(-916.91 -804)">
    <path id="パス_772" data-name="パス 772" d="M7.5,14.368C3.467,11.5,1.352,8.889.485,6.7-1.839.851,4.8-1.948,7.5,1.508c2.7-3.455,9.339-.656,7.015,5.2C13.648,8.889,11.533,11.5,7.5,14.368Z" transform="translate(916.91 804)" fill="#fff"/>
    <path id="パス_772_-_アウトライン" data-name="パス 772 - アウトライン" d="M7.5,12.508c3.631-2.746,5.063-4.953,5.621-6.357a3.575,3.575,0,0,0-.093-3.413A2.914,2.914,0,0,0,10.636,1.5a2.438,2.438,0,0,0-1.954.931L7.5,3.943,6.318,2.431A2.438,2.438,0,0,0,4.364,1.5,2.914,2.914,0,0,0,1.972,2.738a3.575,3.575,0,0,0-.093,3.413c.558,1.4,1.99,3.611,5.621,6.357m0,1.86C3.467,11.5,1.352,8.889.485,6.7-1.839.851,4.8-1.948,7.5,1.508c2.7-3.455,9.339-.656,7.015,5.2C13.648,8.889,11.533,11.5,7.5,14.368Z" transform="translate(916.91 804)" fill="#a38a32"/>
  </g>
</svg>
