<svg xmlns="http://www.w3.org/2000/svg" width="16.971" height="16.971" viewBox="0 0 16.971 16.971">
  <g id="グループ_3663" data-name="グループ 3663" transform="translate(-669.63 617.304) rotate(-45)">
    <path id="楕円形_2" data-name="楕円形 2" d="M6,1a5,5,0,1,0,5,5A5.006,5.006,0,0,0,6,1M6,0A6,6,0,1,1,0,6,6,6,0,0,1,6,0Z" transform="translate(904 43)" fill="#fff"/>
    <path id="線_99" data-name="線 99" d="M0,4.5A.5.5,0,0,1-.5,4V0A.5.5,0,0,1,0-.5.5.5,0,0,1,.5,0V4A.5.5,0,0,1,0,4.5Z" transform="translate(910.5 55)" fill="#fff"/>
  </g>
</svg>
