<svg xmlns="http://www.w3.org/2000/svg" width="19.233" height="18.423" viewBox="0 0 19.233 18.423">
  <path id="パス_2" data-name="パス 2" d="M9.617,15.941c2.787-2.117,5.921-5.023,7.136-8.082a4.512,4.512,0,0,0-.112-4.305,3.658,3.658,0,0,0-3-1.554,3.05,3.05,0,0,0-2.445,1.165L9.617,5.18,8.041,3.165A3.05,3.05,0,0,0,5.6,2a3.658,3.658,0,0,0-3,1.554,4.511,4.511,0,0,0-.112,4.3c1.215,3.059,4.349,5.965,7.136,8.082m0,2.482C4.446,14.744,1.734,11.4.622,8.6-2.358,1.092,6.153-2.5,9.617,1.933,13.081-2.5,21.591,1.092,18.611,8.6,17.5,11.4,14.787,14.744,9.617,18.423Z" transform="translate(0 0)" fill="#313131"/>
</svg>
