<svg xmlns="http://www.w3.org/2000/svg" width="15.66" height="15" viewBox="0 0 15.66 15">
  <g id="パス_1" data-name="パス 1" transform="translate(-1305.088 -43)">
    <path id="パス_1-2" data-name="パス 1" d="M7.83,15C3.62,12,1.412,9.28.506,7-1.92.889,5.009-2.034,7.83,1.574,10.65-2.034,17.58.889,15.154,7,14.248,9.28,12.04,12,7.83,15Z" transform="translate(1305.088 43)" fill="#fff"/>
    <path id="パス_1_-_アウトライン" data-name="パス 1 - アウトライン" d="M7.83,13.516c2.377-1.773,5.146-4.283,6.208-6.958a4.076,4.076,0,0,0-.135-3.9A3.412,3.412,0,0,0,11.1,1.2,2.889,2.889,0,0,0,8.775,2.313L7.83,3.522,6.885,2.313A2.889,2.889,0,0,0,4.557,1.2a3.412,3.412,0,0,0-2.8,1.453,4.076,4.076,0,0,0-.135,3.9c1.062,2.676,3.831,5.185,6.208,6.958M7.83,15C3.62,12,1.412,9.28.506,7-1.92.889,5.009-2.034,7.83,1.574,10.65-2.034,17.58.889,15.154,7,14.248,9.28,12.04,12,7.83,15Z" transform="translate(1305.088 43)" fill="#313131"/>
  </g>
</svg>
