<svg xmlns="http://www.w3.org/2000/svg" width="31.339" height="31.339" viewBox="0 0 31.339 31.339">
  <g id="グループ_16882" data-name="グループ 16882" transform="translate(1.25 1.25)">
    <path id="楕円形_5" data-name="楕円形 5" d="M12.909-1.25A14.159,14.159,0,0,1,27.069,12.909,14.159,14.159,0,0,1,12.909,27.069,14.159,14.159,0,0,1-1.25,12.909,14.159,14.159,0,0,1,12.909-1.25Zm0,25.819A11.659,11.659,0,1,0,1.25,12.909,11.673,11.673,0,0,0,12.909,24.569Z" transform="translate(0 0)"/>
    <path id="線_2" data-name="線 2" d="M6.5,7.75a1.246,1.246,0,0,1-.884-.366l-6.5-6.5a1.25,1.25,0,0,1,0-1.768,1.25,1.25,0,0,1,1.768,0l6.5,6.5A1.25,1.25,0,0,1,6.5,7.75Z" transform="translate(22.339 22.339)"/>
  </g>
</svg>
