<svg xmlns="http://www.w3.org/2000/svg" width="17.87" height="15" viewBox="0 0 17.87 15">
  <g id="グループ_3675" data-name="グループ 3675" transform="translate(0 -1.001)">
    <path id="パス_769" data-name="パス 769" d="M9.416,16H2.254A2.257,2.257,0,0,1,0,13.747V3.255A2.257,2.257,0,0,1,2.254,1H9.416A2.257,2.257,0,0,1,11.67,3.255V5.482a.5.5,0,0,1-1,0V3.255A1.256,1.256,0,0,0,9.416,2H2.254A1.256,1.256,0,0,0,1,3.255V13.747A1.256,1.256,0,0,0,2.254,15H9.416a1.256,1.256,0,0,0,1.254-1.254V11.5a.5.5,0,0,1,1,0v2.245A2.257,2.257,0,0,1,9.416,16Z" transform="translate(0 0)" fill="#1a1311"/>
    <path id="線_106" data-name="線 106" d="M3.458,3.958A.5.5,0,0,1,3.1,3.811L-.354.354a.5.5,0,0,1,0-.707.5.5,0,0,1,.707,0L3.811,3.1a.5.5,0,0,1-.354.854Z" transform="translate(13.912 5.029)" fill="#1a1311"/>
    <path id="線_107" data-name="線 107" d="M0,3.958a.5.5,0,0,1-.354-.146.5.5,0,0,1,0-.707L3.1-.354a.5.5,0,0,1,.707,0,.5.5,0,0,1,0,.707L.354,3.811A.5.5,0,0,1,0,3.958Z" transform="translate(13.912 8.514)" fill="#1a1311"/>
    <path id="線_108" data-name="線 108" d="M9.007.5H0A.5.5,0,0,1-.5,0,.5.5,0,0,1,0-.5H9.007a.5.5,0,0,1,.5.5A.5.5,0,0,1,9.007.5Z" transform="translate(8.021 8.5)" fill="#1a1311"/>
  </g>
</svg>
