<svg xmlns="http://www.w3.org/2000/svg" width="25" height="25" viewBox="0 0 25 25">
  <g id="グループ_3682" data-name="グループ 3682" transform="translate(-1377 -348)">
    <circle id="楕円形_3" data-name="楕円形 3" cx="12.5" cy="12.5" r="12.5" transform="translate(1377 348)" fill="#faf5e4"/>
    <path id="パス_774" data-name="パス 774" d="M16.4,17.7a4.667,4.667,0,0,1,.274-1.761A4.611,4.611,0,0,1,17.76,14.5a8.28,8.28,0,0,0,1.025-1.117,1.957,1.957,0,0,0,.332-1.094,1.674,1.674,0,0,0-.386-1.189,1.482,1.482,0,0,0-1.133-.41,1.63,1.63,0,0,0-1.149.4,1.4,1.4,0,0,0-.436,1.087H14a2.972,2.972,0,0,1,1-2.326A3.825,3.825,0,0,1,17.6,9a3.732,3.732,0,0,1,2.6.847,3.033,3.033,0,0,1,.934,2.368,3.877,3.877,0,0,1-1.261,2.667l-1.021,1.005a2.736,2.736,0,0,0-.565,1.819Zm-.141,2.578a1.06,1.06,0,0,1,.307-.79,1.291,1.291,0,0,1,1.668.008,1.067,1.067,0,0,1,.307.781,1.045,1.045,0,0,1-.3.76,1.13,1.13,0,0,1-.847.306,1.116,1.116,0,0,1-.843-.306,1.052,1.052,0,0,1-.294-.76" transform="translate(1371.935 345.328)"/>
  </g>
</svg>
