<svg xmlns="http://www.w3.org/2000/svg" width="39.452" height="31.511" viewBox="0 0 39.452 31.511">
  <path id="パス_764" data-name="パス 764" d="M0,.995V27.359a1.272,1.272,0,0,0,1.937,1.085,16.387,16.387,0,0,1,17.124,0c.007,0,.015.006.022.01s.013.011.021.015a1.257,1.257,0,0,0,.161.064.738.738,0,0,0,.341.082c.04,0,.08.016.12.016l.012,0a6.809,6.809,0,0,0,.323-.046,1.275,1.275,0,0,0,.136-.055,1.231,1.231,0,0,0,.15-.06c.007,0,.013-.011.02-.015s.016-.006.023-.01a16.387,16.387,0,0,1,17.124,0,1.272,1.272,0,0,0,1.937-1.085V.995A1.273,1.273,0,0,0,38.845-.09,18.891,18.891,0,0,0,19.726-.467,18.891,18.891,0,0,0,.607-.09,1.273,1.273,0,0,0,0,.995m36.908.73V25.237a19.192,19.192,0,0,0-15.91,0V1.725a16.389,16.389,0,0,1,15.91,0m-34.364,0a16.388,16.388,0,0,1,15.91,0V25.237a19.192,19.192,0,0,0-15.91,0Z" transform="translate(0 2.88)" fill="#1a1311"/>
</svg>
