<svg xmlns="http://www.w3.org/2000/svg" width="16.902" height="13.5" viewBox="0 0 16.902 13.5">
  <path id="パス_764" data-name="パス 764" d="M0-1.22v11.3a.545.545,0,0,0,.83.465,7.021,7.021,0,0,1,7.336,0l.01,0,.009.007a.538.538,0,0,0,.069.027.316.316,0,0,0,.146.035c.017,0,.034.007.051.007h.005a2.919,2.919,0,0,0,.139-.02.546.546,0,0,0,.058-.023.528.528,0,0,0,.064-.026l.009-.006.01,0a7.021,7.021,0,0,1,7.336,0,.545.545,0,0,0,.83-.465V-1.22a.545.545,0,0,0-.26-.465,8.094,8.094,0,0,0-8.191-.161A8.094,8.094,0,0,0,.26-1.684.545.545,0,0,0,0-1.22m15.812.313V9.166A8.223,8.223,0,0,0,9,9.166V-.907a7.021,7.021,0,0,1,6.816,0M1.09-.907a7.021,7.021,0,0,1,6.816,0V9.166a8.222,8.222,0,0,0-6.816,0Z" transform="translate(0 2.88)" fill="#1a1311"/>
</svg>
