<svg xmlns="http://www.w3.org/2000/svg" width="42.075" height="35.378" viewBox="0 0 42.075 35.378">
  <g id="グループ_3675" data-name="グループ 3675" transform="translate(1.35 1.35)">
    <path id="パス_769" data-name="パス 769" d="M21.311,35.529H4.595A5.451,5.451,0,0,1-.85,30.084V5.6A5.451,5.451,0,0,1,4.595.151H21.311A5.451,5.451,0,0,1,26.756,5.6v5.2a1.35,1.35,0,1,1-2.7,0V5.6a2.748,2.748,0,0,0-2.745-2.745H4.595A2.748,2.748,0,0,0,1.85,5.6V30.084a2.748,2.748,0,0,0,2.745,2.745H21.311a2.748,2.748,0,0,0,2.745-2.745V24.843a1.35,1.35,0,0,1,2.7,0v5.241A5.451,5.451,0,0,1,21.311,35.529Z" transform="translate(-0.5 -1.501)" fill="#1a1311"/>
    <path id="線_106" data-name="線 106" d="M8.071,9.421a1.346,1.346,0,0,1-.955-.4L-.955.955a1.35,1.35,0,0,1,0-1.909,1.35,1.35,0,0,1,1.909,0L9.025,7.116a1.35,1.35,0,0,1-.955,2.3Z" transform="translate(31.305 8.235)" fill="#1a1311"/>
    <path id="線_107" data-name="線 107" d="M0,9.421a1.346,1.346,0,0,1-.955-.4,1.35,1.35,0,0,1,0-1.909L7.116-.955a1.35,1.35,0,0,1,1.909,0,1.35,1.35,0,0,1,0,1.909L.955,9.025A1.346,1.346,0,0,1,0,9.421Z" transform="translate(31.305 16.37)" fill="#1a1311"/>
    <path id="線_108" data-name="線 108" d="M21.024,1.35H0A1.35,1.35,0,0,1-1.35,0,1.35,1.35,0,0,1,0-1.35H21.024A1.35,1.35,0,0,1,22.374,0,1.35,1.35,0,0,1,21.024,1.35Z" transform="translate(17.555 16.338)" fill="#1a1311"/>
  </g>
</svg>
