<svg xmlns="http://www.w3.org/2000/svg" width="9.841" height="9.841" viewBox="0 0 9.841 9.841">
  <g id="グループ_3760" data-name="グループ 3760" transform="translate(-3.506 4.921) rotate(-45)">
    <path id="線_115" data-name="線 115" d="M0,12.418a.5.5,0,0,1-.5-.5V0A.5.5,0,0,1,0-.5.5.5,0,0,1,.5,0V11.918A.5.5,0,0,1,0,12.418Z" transform="translate(5.959 0)" fill="#313131"/>
    <path id="線_116" data-name="線 116" d="M0,12.418a.5.5,0,0,1-.5-.5V0A.5.5,0,0,1,0-.5.5.5,0,0,1,.5,0V11.918A.5.5,0,0,1,0,12.418Z" transform="translate(11.918 5.959) rotate(90)" fill="#313131"/>
  </g>
</svg>
